<svg xmlns="http://www.w3.org/2000/svg" viewBox="0 0 206 64" width="206" height="64" role="img" aria-label="OCSO"><rect width="64" height="64" rx="18" fill="#FFFFFF"/><path d="M15 32H23C31 32 33 20 44 20M23 32C31 32 33 44 44 44" fill="none" stroke="#11171D" stroke-width="5" stroke-linecap="round" stroke-linejoin="round"/><circle cx="15" cy="32" r="4.5" fill="#11171D"/><circle cx="46" cy="20" r="5" fill="#3D5DCF"/><circle cx="46" cy="44" r="5" fill="#11171D"/><path transform="translate(82 17) scale(0.04225)" fill="#FFFFFF" d="M388 726Q280 726 202.5 681.0Q125 636 83.5 553.0Q42 470 42 356Q42 242 83.5 158.5Q125 75 202.5 29.5Q280 -16 388 -16Q496 -16 573.5 29.5Q651 75 692.5 158.5Q734 242 734 356Q734 470 692.5 553.0Q651 636 573.5 681.0Q496 726 388 726ZM388 598Q477 598 527.0 534.5Q577 471 577 356Q577 241 527.0 176.5Q477 112 388 112Q299 112 249.0 176.5Q199 241 199 356Q199 471 249.0 534.5Q299 598 388 598ZM1121.0 726Q1024.0 726 949.0 682.0Q874.0 638 831.0 555.0Q788.0 472 788.0 356Q788.0 243 829.5 159.5Q871.0 76 946.5 30.0Q1022.0 -16 1124.0 -16Q1263.0 -16 1340.0 52.5Q1417.0 121 1440.0 248L1282.0 254Q1270.0 187 1230.0 149.5Q1190.0 112 1124.0 112Q1039.0 112 992.0 178.5Q945.0 245 945.0 356Q945.0 468 993.0 533.0Q1041.0 598 1123.0 598Q1194.0 598 1234.0 557.5Q1274.0 517 1284.0 445L1443.0 451Q1421.0 581 1340.5 653.5Q1260.0 726 1121.0 726ZM1805.0 726Q1667.0 726 1588.5 658.0Q1510.0 590 1502.0 476L1655.0 469Q1664.0 532 1701.0 566.0Q1738.0 600 1807.0 600Q1863.0 600 1894.5 579.5Q1926.0 559 1926.0 518Q1926.0 493 1914.0 474.5Q1902.0 456 1868.0 440.5Q1834.0 425 1768.0 410Q1677.0 389 1621.5 363.0Q1566.0 337 1541.0 297.5Q1516.0 258 1516.0 198Q1516.0 135 1547.5 86.5Q1579.0 38 1639.0 11.0Q1699.0 -16 1782.0 -16Q1870.0 -16 1931.0 15.0Q1992.0 46 2026.0 100.0Q2060.0 154 2068.0 224L1916.0 232Q1910.0 177 1875.5 143.5Q1841.0 110 1780.0 110Q1728.0 110 1698.5 133.0Q1669.0 156 1669.0 193Q1669.0 219 1682.0 236.5Q1695.0 254 1727.0 267.0Q1759.0 280 1817.0 292Q1916.0 312 1973.0 342.5Q2030.0 373 2054.5 415.0Q2079.0 457 2079.0 511Q2079.0 577 2045.5 625.5Q2012.0 674 1950.5 700.0Q1889.0 726 1805.0 726ZM2489.0 726Q2381.0 726 2303.5 681.0Q2226.0 636 2184.5 553.0Q2143.0 470 2143.0 356Q2143.0 242 2184.5 158.5Q2226.0 75 2303.5 29.5Q2381.0 -16 2489.0 -16Q2597.0 -16 2674.5 29.5Q2752.0 75 2793.5 158.5Q2835.0 242 2835.0 356Q2835.0 470 2793.5 553.0Q2752.0 636 2674.5 681.0Q2597.0 726 2489.0 726ZM2489.0 598Q2578.0 598 2628.0 534.5Q2678.0 471 2678.0 356Q2678.0 241 2628.0 176.5Q2578.0 112 2489.0 112Q2400.0 112 2350.0 176.5Q2300.0 241 2300.0 356Q2300.0 471 2350.0 534.5Q2400.0 598 2489.0 598Z"/></svg>
